<svg width="48" height="39" viewBox="0 0 48 39" fill="none" xmlns="http://www.w3.org/2000/svg">
<path d="M24.18 37.4348C24.18 37.8652 23.829 38.2174 23.4 38.2174H15.6C15.171 38.2174 14.82 37.8652 14.82 37.4348C14.82 37.0043 15.171 36.6522 15.6 36.6522H18.72V33.5217H20.28V36.6522H23.4C23.829 36.6522 24.18 37.0043 24.18 37.4348Z" fill="#FFC403"/>
<path d="M35.49 28.8261H3.51001V31.9565H35.49V28.8261Z" fill="#FFC403"/>
<path d="M35.49 6.91304H3.51001V27.2609H35.49V6.91304Z" fill="#FFC403"/>
<path d="M39 1C34.5839 1 31 4.58386 31 9C31 13.4161 34.5839 17 39 17C43.4161 17 47 13.4161 47 9C47 4.58386 43.4161 1 39 1ZM38.75 12.25V11.75H39.25V12.25H38.75ZM38.75 9.25V5.75H39.25V9.25H38.75Z" fill="#E94F3E" stroke="white"/>
</svg>
