<svg width="36" height="43" viewBox="0 0 36 43" fill="none" xmlns="http://www.w3.org/2000/svg">
<path d="M23.6607 12.0938H21.4286V2.32918C21.4286 1.56772 20.8482 0.940635 20.0893 0.895844H4.91071C4.15179 0.940635 3.57143 1.56772 3.57143 2.32918V12.0938H1.33929C0.580357 12.1386 0 12.7656 0 13.5271V26.0688C0 28.2636 1.74107 30.0104 3.92857 30.0104C3.97321 30.0104 3.97321 30.0104 4.01786 30.0104H4.91071V32.3396C4.91071 34.3552 6.74107 35.8333 8.70536 35.8333H11.1607V41.5667C11.1607 42.3281 11.7411 42.9104 12.5 42.9104C13.2589 42.9104 13.8393 42.3281 13.8393 41.5667V35.8333H16.2946C18.2589 35.8333 19.6429 34.3552 19.6429 32.3396V30.0104H20.9821C23.1696 30.0552 24.9554 28.3531 25 26.1583C25 26.1136 25 26.1136 25 26.0688V13.5271C25 12.7656 24.4196 12.1386 23.6607 12.0938ZM18.75 12.0938H6.25V3.58334H18.75V12.0938Z" fill="#FFC403"/>
<path d="M10.1786 10.5261C10.2232 10.5261 10.2232 10.5261 10.2678 10.5261C10.9821 10.5709 11.5625 9.98856 11.6071 9.2719C11.6071 9.2271 11.6071 9.2271 11.6071 9.18231V6.49481C11.6071 5.73335 11.0268 5.15106 10.2678 5.15106C9.50892 5.15106 8.92856 5.73335 8.92856 6.49481V9.18231C8.88392 9.89898 9.46428 10.4813 10.1786 10.5261Z" fill="#FFC403"/>
<path d="M14.6429 10.5261C14.6875 10.5261 14.6875 10.5261 14.7321 10.5261C15.4464 10.5709 16.0268 9.98856 16.0714 9.2719C16.0714 9.2271 16.0714 9.2271 16.0714 9.18231V6.49481C16.0714 5.73335 15.4911 5.15106 14.7321 5.15106C13.9732 5.15106 13.3929 5.73335 13.3929 6.49481V9.18231C13.3482 9.89898 13.9286 10.4813 14.6429 10.5261Z" fill="#FFC403"/>
<path d="M27 26C22.5839 26 19 29.5839 19 34C19 38.4161 22.5839 42 27 42C31.4161 42 35 38.4161 35 34C35 29.5839 31.4161 26 27 26ZM26.75 37.25V36.75H27.25V37.25H26.75ZM26.75 34.25V30.75H27.25V34.25H26.75Z" fill="#E94F3E" stroke="white"/>
</svg>
