<svg width="38" height="42" viewBox="0 0 38 42" fill="none" xmlns="http://www.w3.org/2000/svg">
<path d="M20.8979 9.81928C20.8979 9.3909 20.5567 9.04819 20.1302 9.04819H17.9978C17.5713 9.04819 17.2301 9.3909 17.2301 9.81928V11.6185C15.9933 11.8755 14.7991 12.3467 13.7755 13.0321L12.4961 11.747C12.1975 11.4471 11.6857 11.4471 11.3872 11.747L9.85185 13.2892C9.55331 13.589 9.55331 14.1031 9.85185 14.4029L11.1313 15.6881C10.4489 16.7162 9.93715 17.8728 9.72391 19.158H7.93266C7.50617 19.158 7.16498 19.5007 7.16498 19.929V22.0709C7.16498 22.4993 7.50617 22.842 7.93266 22.842H9.72391C9.9798 24.0843 10.4489 25.2838 11.1313 26.3119L9.85185 27.5971C9.55331 27.8969 9.55331 28.411 9.85185 28.7108L11.3446 30.2102C11.6431 30.51 12.1549 30.51 12.4534 30.2102L13.7329 28.925C14.7565 29.6104 15.908 30.1245 17.1874 30.3387V32.1379C17.1874 32.5663 17.5286 32.909 17.9551 32.909H20.0875C20.514 32.909 20.8552 32.5663 20.8552 32.1379V30.3387C22.092 30.0817 23.2862 29.6104 24.3098 28.925L25.5892 30.2102C25.8878 30.51 26.3995 30.51 26.6981 30.2102L28.1908 28.7108C28.4893 28.411 28.4893 27.8969 28.1908 27.5971L26.9113 26.3119C27.5937 25.2838 28.1055 24.1272 28.3187 22.842H30.11C30.5365 22.842 30.8777 22.4993 30.8777 22.0709V19.929C30.8777 19.5007 30.5365 19.158 30.11 19.158H28.3187C28.0629 17.9157 27.5937 16.7162 26.9113 15.6881L28.1908 14.4029C28.4893 14.1031 28.4893 13.589 28.1908 13.2892L26.6981 11.7898C26.3995 11.49 25.8878 11.49 25.5892 11.7898L24.3098 13.075C23.2862 12.3896 22.1347 11.8755 20.8552 11.6613V9.81928H20.8979ZM23.3288 21C23.3288 23.3989 21.4097 25.3266 19.0213 25.3266C16.633 25.3266 14.7138 23.3989 14.7138 21C14.7138 18.6011 16.633 16.6734 19.0213 16.6734C21.4097 16.6734 23.3288 18.6011 23.3288 21ZM2.85746 21H0C0 10.4618 8.52974 1.89424 19.0213 1.89424V0.22356C19.0213 0.0522078 19.2346 -0.0763062 19.3625 0.0522079L23.8406 3.13655C23.9686 3.22222 23.9686 3.39357 23.8406 3.52209L19.3625 6.60642C19.2346 6.6921 19.0213 6.60642 19.0213 6.43507V4.76439C10.1077 4.76439 2.85746 12.0469 2.85746 21ZM35.1852 21H38C38 31.5382 29.4703 40.1058 18.9787 40.1058V41.7764C18.9787 41.9478 18.7654 42.0763 18.6375 41.9478L14.1594 38.8635C14.0314 38.7778 14.0314 38.6064 14.1594 38.4779L18.6375 35.3936C18.7654 35.3079 18.9787 35.3936 18.9787 35.5649V37.2356C27.9349 37.2356 35.1852 29.9531 35.1852 21Z" fill="#E94F3E"/>
</svg>
