<svg width="43" height="34" viewBox="0 0 43 34" fill="none" xmlns="http://www.w3.org/2000/svg">
<g clip-path="url(#clip0)">
<path d="M9.22917 21.0833H10.6446L11.1462 20.5996C9.39042 18.5571 8.33333 15.9054 8.33333 13.0208C8.33333 6.58875 13.5471 1.375 19.9792 1.375C26.4112 1.375 31.625 6.58875 31.625 13.0208C31.625 19.4529 26.4112 24.6667 19.9792 24.6667C17.0946 24.6667 14.4429 23.6096 12.4004 21.8538L11.9167 22.3554V23.7708L2.95833 32.7113L0.28875 30.0417L9.22917 21.0833ZM19.9792 21.0833C24.4404 21.0833 28.0417 17.4821 28.0417 13.0208C28.0417 8.55958 24.4404 4.95833 19.9792 4.95833C15.5179 4.95833 11.9167 8.55958 11.9167 13.0208C11.9167 17.4821 15.5179 21.0833 19.9792 21.0833Z" fill="#FFC403"/>
</g>
<path d="M32.5 14.25C27.3939 14.25 23.25 18.3939 23.25 23.5C23.25 28.6061 27.3939 32.75 32.5 32.75C37.6061 32.75 41.75 28.6061 41.75 23.5C41.75 18.3939 37.6061 14.25 32.5 14.25ZM32.125 27.375V26.625H32.875V27.375H32.125ZM32.125 23.875V19.625H32.875V23.875H32.125Z" fill="#E94F3E" stroke="white"/>
<defs>
<clipPath id="clip0">
<rect width="37" height="34" fill="white" transform="matrix(-1 0 0 1 37 0)"/>
</clipPath>
</defs>
</svg>
